# xmcd
#
# Track frame offsets: 
#        150
#        17205
#        37228
#        52441
#        70517
#        85824
#        106672
#        128057
#        143688
#        159737
#        180610
#        196965
#        217214
#        241855
#        284799
#        308577
#
# Disc length: 4393 seconds
#
# Revision: 0
# Processed by: cddbd v1.5.2PL0 Copyright (c) Steve Scherf et al.
# Submitted via: ExactAudioCopy v0.95b3
#
DISCID=ed112710
DTITLE=Randy Rogers Band - Live At Billy Bob's Texas
DYEAR=2005
DGENRE=Country
TTITLE0=Somebody Take Me Home
TTITLE1=Down and Out
TTITLE2=Like It Used to Be
TTITLE3=Company You Keep
TTITLE4=Still Be Losing You
TTITLE5=Can't Slow Down
TTITLE6=Love Must Follow You Around
TTITLE7=One Thing I Know
TTITLE8=Again
TTITLE9=I Never Meant to Break Your Heart
TTITLE10=Ten Miles Deep
TTITLE11=Tonight's Not the Night (For Goodbye)
TTITLE12=They Call It Hill Country
TTITLE13=Lost and Found
TTITLE14=The Time Around
TTITLE15=Empty Glass, An (That's The Way The Day Ends)
EXTD=
EXTT0=
EXTT1=
EXTT2=
EXTT3=
EXTT4=
EXTT5=
EXTT6=
EXTT7=
EXTT8=
EXTT9=
EXTT10=
EXTT11=
EXTT12=
EXTT13=
EXTT14=
EXTT15=
PLAYORDER=
